<svg width="48" height="48" viewBox="0 0 48 48" fill="none" xmlns="http://www.w3.org/2000/svg">
  <g clip-path="url(#clip0)">
    <path
      d="M7.02342 38.7468L18.7464 27.0239C19.8648 25.9055 20.1859 24.3088 19.7476 22.8964L23.377 19.267C24.4617 20.1502 25.5866 20.8563 26.6926 21.3717C26.777 21.1202 26.9073 20.8891 27.0974 20.699L33.1756 14.6208C33.3641 14.4323 33.5967 14.3045 33.8515 14.2235C33.1075 12.6243 31.9671 10.9808 30.4695 9.4832C28.9423 7.95605 27.2637 6.79677 25.6341 6.05457C25.5489 6.29051 25.426 6.50922 25.2458 6.69034L19.1675 12.7685C18.9881 12.9479 18.7743 13.079 18.5359 13.1666C19.0545 14.3021 19.7787 15.4598 20.6865 16.5756L17.0571 20.205C15.6446 19.7667 14.0479 20.0879 12.9296 21.2062L1.20494 32.9292C-0.401646 34.5358 -0.401646 37.1403 1.20494 38.7468C2.81152 40.3534 5.41683 40.3534 7.02342 38.7468Z"
      fill="#1C59A0" fill-opacity="0.15"/>
    <path
      d="M27.6758 21.2792C27.5627 21.3923 27.4907 21.5357 27.4464 21.6946C27.2956 22.2403 27.5381 22.9948 28.1092 23.5658C28.5565 24.0123 29.13 24.2794 29.6445 24.2794C29.86 24.2794 30.1648 24.2311 30.3958 24L32.2752 22.1206L34.5946 19.8013L36.474 17.9219C36.7042 17.6917 36.7977 17.3394 36.7354 16.9305C36.6665 16.475 36.4191 16.0153 36.0398 15.6361C35.5925 15.1896 35.019 14.9225 34.5053 14.9225C34.4061 14.9225 34.2874 14.9356 34.1662 14.9692C34.0236 15.0085 33.8778 15.0773 33.7532 15.2027L27.6758 21.2792Z"
      fill="#1C59A0" fill-opacity="0.15"/>
    <path
      d="M17.8346 12.4704C17.946 12.4704 18.082 12.4557 18.2196 12.4106C18.3466 12.3688 18.4752 12.3017 18.5867 12.1902L24.6649 6.11205C24.7665 6.01045 24.832 5.88184 24.8779 5.74255C25.0565 5.19447 24.8189 4.41365 24.2306 3.82626C23.7833 3.37976 23.2098 3.11267 22.6961 3.11267C22.4806 3.11267 22.1758 3.16105 21.9448 3.39206L19.8737 5.46317L17.9369 7.39912L15.8658 9.47023C15.3643 9.97246 15.5626 11.0195 16.3 11.7568C16.7474 12.2033 17.3209 12.4704 17.8346 12.4704Z"
      fill="#1C59A0" fill-opacity="0.15"/>
    <path
      d="M30.281 39.0368C31.278 38.9385 32.3472 38.9106 33.4638 38.9106C33.9399 38.9106 34.4273 38.9139 34.9238 38.918C35.9527 38.9261 37.0408 38.9261 38.0698 38.918C38.5663 38.9138 39.0537 38.9106 39.5298 38.9106C40.6464 38.9106 41.7156 38.9384 42.7126 39.0368V36.6593H30.281V39.0368Z"
      fill="#1C59A0" fill-opacity="0.15"/>
    <path
      d="M39.5298 39.73C39.0563 39.73 38.5713 39.7333 38.0764 39.7373C37.0425 39.7447 35.9511 39.7447 34.9181 39.7373C34.4232 39.7332 33.9382 39.73 33.4647 39.73C32.3054 39.73 31.242 39.753 30.2818 39.8439C27.1153 40.1429 25.1286 41.2113 24.9934 44.8873H48.0003C47.8652 41.2113 45.8784 40.1438 42.7119 39.844C41.7525 39.753 40.6882 39.73 39.5298 39.73Z"
      fill="#1C59A0" fill-opacity="0.15"/>
  </g>
  <defs>
    <clipPath id="clip0">
      <rect width="48.0003" height="48" fill="white"/>
    </clipPath>
  </defs>
</svg>
