<svg xmlns="http://www.w3.org/2000/svg" viewBox="0 0 350 334.01">
  <defs>
    <style>.cls-1{fill:#e48e1b;}.cls-2{fill:#f8e755;}</style>
  </defs>
  <title>documents</title>
  <g id="Layer_2" data-name="Layer 2">
    <g id="Layer_1-2" data-name="Layer 1">
      <path class="cls-1"
            d="M350,135V293.79A40.22,40.22,0,0,1,309.77,334H44.46a40.21,40.21,0,0,0,40.22-40.21V135A40.21,40.21,0,0,1,124.9,94.74H309.77A40.22,40.22,0,0,1,350,135Z"/>
      <path class="cls-2"
            d="M300.67,86.54v8.2H124.9A40.21,40.21,0,0,0,84.68,135V293.79A40.22,40.22,0,0,1,44.46,334H40.23A40.22,40.22,0,0,1,0,293.79V40.22A40.22,40.22,0,0,1,40.23,0h90.23a40.23,40.23,0,0,1,29.69,13.08l27.39,30A10.07,10.07,0,0,0,195,46.32h65.48A40.22,40.22,0,0,1,300.67,86.54Z"/>
    </g>
  </g>
</svg>
