<?xml version="1.0" encoding="utf-8"?>
<!-- Generator: Adobe Illustrator 21.0.0, SVG Export Plug-In . SVG Version: 6.00 Build 0)  -->
<svg version="1.1" id="Capa_1" xmlns="http://www.w3.org/2000/svg"  x="0px" y="0px"
	 viewBox="0 0 512 512" style="enable-background:new 0 0 512 512;" xml:space="preserve">
<style type="text/css">
	.st0{opacity:0.5;}
	.st1{fill:#FFA245;}
</style>
<g class="st0">
	<path class="st1" d="M497.3,250.1c-8.1,0-14.7,6.5-14.7,14.7v133.4c0,36.3-29.6,65.7-65.7,65.7H95.1c-36.3,0-65.7-29.6-65.7-65.7
		V262.6c0-8.1-6.5-14.7-14.7-14.7S0,254.4,0,262.6v135.6c0,52.5,42.7,95.1,95.1,95.1h321.8c52.5,0,95.1-42.7,95.1-95.1V264.7
		C512,256.7,505.5,250.1,497.3,250.1z"/>
	<path class="st1" d="M245.7,376.8c2.8,2.8,6.6,4.3,10.3,4.3c3.7,0,7.5-1.4,10.3-4.3l93.2-93.2c5.8-5.8,5.8-15,0-20.8
		c-5.8-5.8-15-5.8-20.8,0L270.7,331V33.4c0-8.1-6.5-14.7-14.7-14.7c-8.1,0-14.7,6.5-14.7,14.7V331l-68.2-68.2
		c-5.8-5.8-15-5.8-20.8,0s-5.8,15,0,20.8L245.7,376.8z"/>
</g>
</svg>
