<svg xmlns="http://www.w3.org/2000/svg" viewBox="0 0 486.96 512">
  <defs>
    <style>
      .cls-1{fill:#fda537;}.cls-2{fill:#f9972d;}.cls-3{fill:#feb644;}.cls-4{fill:#e4eaf8;}.cls-5{fill:#d8dce5;}.cls-6{fill:#8d909f;}.cls-7{fill:#ffc850;}
    </style>
  </defs>
  <title>email_confirm</title>
  <g id="Layer_2" data-name="Layer 2">
    <g id="Layer_1-2" data-name="Layer 1">
      <path class="cls-1"
            d="M425.65,186.17V234.3L254.08,369a17.17,17.17,0,0,1-21.2,0L61.31,234.3V186.17H0V494.26A17.74,17.74,0,0,0,17.74,512H469.21A17.74,17.74,0,0,0,487,494.26V186.17Z"/>
      <path class="cls-2" d="M30,494.26V186.17H0V494.26A17.74,17.74,0,0,0,17.74,512h30A17.74,17.74,0,0,1,30,494.26Z"/>
      <path class="cls-1" d="M425.65,186.17V138L487,186.17Z"/>
      <path class="cls-1" d="M61.31,186.17H0L61.31,138Z"/>
      <path class="cls-2" d="M61.31,138,0,186.17H30l31.27-24.55Z"/>
      <path class="cls-3" d="M61.31,186.17H0L61.31,234.3Z"/>
      <path class="cls-1" d="M30,186.17H0l30,23.58Z"/>
      <path class="cls-3" d="M425.65,186.17V234.3L487,186.17Z"/>
      <path class="cls-3"
            d="M254.08,369a17.17,17.17,0,0,1-21.2,0l-36.67-28.79L0,494.26A17.74,17.74,0,0,0,17.74,512H469.21A17.74,17.74,0,0,0,487,494.26l-196.21-154Z"/>
      <path class="cls-1" d="M47.78,512A17.74,17.74,0,0,1,30,494.26V470.68L0,494.26A17.75,17.75,0,0,0,17.74,512Z"/>
      <path class="cls-4"
            d="M232.78,369a17.32,17.32,0,0,0,21.39,0l173.09-135.9V13.55A13.54,13.54,0,0,0,413.73,0H73.23A13.54,13.54,0,0,0,59.69,13.55V233.07Z"/>
      <path class="cls-5"
            d="M90.39,12.34A15.37,15.37,0,0,1,96.61,0H73.23A13.54,13.54,0,0,0,59.69,13.55V233.07L90.4,257.18V12.34Z"/>
      <path class="cls-6"
            d="M244.32,103.15a7.68,7.68,0,0,1-7.68-7.68V64.4a7.68,7.68,0,0,1,15.36,0V95.47A7.68,7.68,0,0,1,244.32,103.15Z"/>
      <path class="cls-7"
            d="M292.54,141.44v-6.28c0-26.91-21.32-49.41-48.22-49.86a49.06,49.06,0,0,0-49.91,49.06v7.09A108.16,108.16,0,0,1,163,217.64H324A108.15,108.15,0,0,1,292.54,141.44Z"/>
      <path class="cls-3"
            d="M225.12,141.44v-7.09a49.08,49.08,0,0,1,33.67-46.59,48.14,48.14,0,0,0-14.47-2.47,49.06,49.06,0,0,0-49.91,49.06v7.09A108.16,108.16,0,0,1,163,217.64h30.71A108.15,108.15,0,0,0,225.12,141.44Z"/>
      <path class="cls-7" d="M214.28,248.31a30,30,0,0,0,60.08,0Z"/>
      <path class="cls-3" d="M244.32,248.31h-30a30,30,0,0,0,45.06,25.41A30,30,0,0,1,244.32,248.31Z"/>
      <path class="cls-3"
            d="M325.85,215.6H161.11a12.63,12.63,0,0,0-12.59,12.59v9.58a12.63,12.63,0,0,0,12.59,12.59H325.85a12.63,12.63,0,0,0,12.59-12.59v-9.58A12.63,12.63,0,0,0,325.85,215.6Z"/>
      <path class="cls-2"
            d="M325.85,227.61H161.11a12.61,12.61,0,0,1-10.71-6,12.48,12.48,0,0,0-1.89,6.58v9.58a12.63,12.63,0,0,0,12.59,12.59H325.85a12.63,12.63,0,0,0,12.59-12.59v-9.58a12.48,12.48,0,0,0-1.89-6.58A12.6,12.6,0,0,1,325.85,227.61Z"/>
    </g>
  </g>
</svg>
