<?xml version="1.0" encoding="utf-8"?>
<!-- Generator: Adobe Illustrator 21.0.0, SVG Export Plug-In . SVG Version: 6.00 Build 0)  -->
<svg version="1.1" id="Layer_1" xmlns="http://www.w3.org/2000/svg"  x="0px" y="0px"
	 viewBox="0 0 512 512" style="enable-background:new 0 0 512 512;" xml:space="preserve">
<style type="text/css">
	.st0{fill:#211902;}
	.st1{fill:#818991;}
</style>
<path class="st0" d="M199.9,202c10.4,9.2,24.1,14.8,39,14.8s28.6-5.6,39-14.8c12.3-10.8,20-26.6,20-44.3c0-5.1-0.6-10-1.9-14.8
	c-6.6-25.5-29.7-44.3-57.2-44.3s-50.6,18.8-57.2,44.3c-1.2,4.7-1.9,9.7-1.9,14.8C179.9,175.3,187.6,191.2,199.9,202z"/>
<path class="st1" d="M375.5,216.4c-5.5-5.5-12.7-8.2-19.9-8.2c-7.2,0-14.4,2.7-19.9,8.2L232.4,319.7c0,0-70-62.3-73.9-62.3
	c-3.9,0-7.8,0.8-11.4,2.4c-3.1,1.4-143.4,169-143.4,169l504.7-1.3L375.5,216.4z"/>
</svg>
