<svg xmlns="http://www.w3.org/2000/svg" viewBox="0 0 512 512">
  <defs>
    <style>
      .cls-1{fill:#c6e9f9;}.cls-2{fill:#92d6f4;}.cls-3{fill:#f9c358;}.cls-4{fill:#0999db;}.cls-5{fill:#ff9b2e;}.cls-6{fill:#0673a4;}
    </style>
  </defs>
  <title>invoices</title>
  <g id="Layer_2" data-name="Layer 2">
    <g id="Layer_1-2" data-name="Layer 1">
      <path class="cls-1" d="M431,239H81V0H431Z"/>
      <path class="cls-2" d="M431,239H256V0H431Z"/>
      <path class="cls-3"
            d="M512,512H0V177.5A18.5,18.5,0,0,1,18.5,159H160.93a15.13,15.13,0,0,1,13,7.34l17.48,29.13A27.85,27.85,0,0,0,215.26,209H512Z"/>
      <path class="cls-4" d="M221,60H371V90H221Z"/>
      <path class="cls-4" d="M221,120H371v30H221Z"/>
      <path class="cls-4"
            d="M178.94,84.63a37.75,37.75,0,0,0-7.12-3.4,26.53,26.53,0,0,0-4.06-1.06v6.58a12.75,12.75,0,0,1,1.39.4c.48.17,1,.33,1.54.48A53.56,53.56,0,0,1,177.15,90a20.2,20.2,0,0,1,4.93,3.11,12,12,0,0,1,3.14,4.35,15.7,15.7,0,0,1,1.1,6.21,16.42,16.42,0,0,1-1.5,7.34,14.22,14.22,0,0,1-3.95,5,17.28,17.28,0,0,1-5.59,2.93,27.88,27.88,0,0,1-6.51,1.21V129h-5.84v-9a48,48,0,0,1-10-2,41.28,41.28,0,0,1-8.92-3.87l6.14-12.5a43.89,43.89,0,0,0,4.24,2.34,41.62,41.62,0,0,0,4.42,1.86,25.19,25.19,0,0,0,5.15,1.28v-6.43q-2.26-.59-4.53-1.39a37.82,37.82,0,0,1-5.92-2.52,16.07,16.07,0,0,1-4.09-3.07A11,11,0,0,1,147,89.82a15.24,15.24,0,0,1-.77-5,17.37,17.37,0,0,1,1.32-7,16,16,0,0,1,3.58-5.23,17.61,17.61,0,0,1,5.3-3.51,21.86,21.86,0,0,1,6.47-1.68V60h5.85v7.46a36.09,36.09,0,0,1,4.68.88c1.51.39,3,.84,4.35,1.35s2.69,1.05,3.91,1.61l3.36,1.57ZM161,82.44a2.35,2.35,0,0,0,.73,1.79A6.84,6.84,0,0,0,164,85.51V80Q161,80.32,161,82.44ZM171,105.1a2.32,2.32,0,0,0-.88-1.79,8.06,8.06,0,0,0-2.34-1.35v5.41a4.63,4.63,0,0,0,2.48-.73A1.87,1.87,0,0,0,171,105.1Z"/>
      <path class="cls-5" d="M256,209H512V512H256Z"/>
      <path class="cls-6" d="M256,60H371V90H256Z"/>
      <path class="cls-6" d="M256,120H371v30H256Z"/>
    </g>
  </g>
</svg>
