<svg xmlns="http://www.w3.org/2000/svg" viewBox="0 0 498.4 492">
  <defs>
    <style>
      .cls-1{fill:#a35d17;}.cls-2{fill:#6b400c;}.cls-3{fill:#f4ad31;}.cls-4{fill:#dd820a;}.cls-5{fill:#d32a0f;}.cls-6{fill:#af1909;}
    </style>
  </defs>
  <title>matter</title>
  <g id="Layer_2" data-name="Layer 2">
    <g id="Layer_1-2" data-name="Layer 1">
      <path class="cls-1"
            d="M98.4,428.8c-11.2,11.2-28.8,11.2-39.2,0h0C48,417.6,48,400,59.2,389.6l200-200c11.2-11.2,28.8-11.2,39.2,0h0c11.2,11.2,11.2,28.8,0,39.2Z"/>
      <path class="cls-2" d="M298.4,189.6h0c11.2,11.2,11.2,28.8,0,39.2l-200,200c-11.2,11.2-28.8,11.2-39.2,0h0"/>
      <path class="cls-3"
            d="M92.8,478.4a31.88,31.88,0,0,1-45.6,0L9.6,440.8a31.88,31.88,0,0,1,0-45.6h0a31.88,31.88,0,0,1,45.6,0l37.6,37.6a31.88,31.88,0,0,1,0,45.6Z"/>
      <path class="cls-4" d="M55.2,395.2l37.6,37.6a31.88,31.88,0,0,1,0,45.6h0a31.88,31.88,0,0,1-45.6,0"/>
      <path class="cls-3"
            d="M427.2,264c-33.6,33.6-69.6,15.2-103.2-18.4l-82.4-82.4C208,129.6,190.4,93.6,223.2,60l14.4-14.4C271.2,12,307.2,30.4,340.8,64l82.4,82.4c33.6,33.6,51.2,69.6,18.4,103.2Z"/>
      <path class="cls-4"
            d="M340.8,64.8l82.4,82.4c33.6,33.6,51.2,69.6,18.4,103.2l-14.4,14.4C393.6,298.4,357.6,280,324,246.4"/>
      <path class="cls-3"
            d="M205.6,118.4a16.42,16.42,0,0,1-23.2,0h0a16.42,16.42,0,0,1,0-23.2L272,4.8a16.42,16.42,0,0,1,23.2,0h0a16.42,16.42,0,0,1,0,23.2Z"/>
      <path class="cls-4" d="M295.2,4.8h0a16.42,16.42,0,0,1,0,23.2l-89.6,90.4a16.42,16.42,0,0,1-23.2,0h0"/>
      <path class="cls-3"
            d="M392.8,305.6a16.42,16.42,0,0,1-23.2,0h0a16.42,16.42,0,0,1,0-23.2l89.6-89.6a16.42,16.42,0,0,1,23.2,0h0a16.42,16.42,0,0,1,0,23.2Z"/>
      <path class="cls-4" d="M483.2,192.8h0a16.42,16.42,0,0,1,0,23.2l-90.4,89.6a16.42,16.42,0,0,1-23.2,0h0"/>
      <path class="cls-4"
            d="M309.6,250.4a15,15,0,0,1-20.8,0L238.4,200a15,15,0,0,1,0-20.8h0a15,15,0,0,1,20.8,0l50.4,50.4a15,15,0,0,1,0,20.8Z"/>
      <rect class="cls-5" x="321.6" y="404" width="168" height="72"/>
      <polyline class="cls-6" points="321.6 404 489.6 404 489.6 476"/>
      <path class="cls-6"
            d="M497.6,485.6a6.31,6.31,0,0,1-6.4,6.4H320a6.31,6.31,0,0,1-6.4-6.4v-4a6.31,6.31,0,0,1,6.4-6.4H492a6.31,6.31,0,0,1,6.4,6.4v4Z"/>
      <path class="cls-6"
            d="M497.6,397.6a6.31,6.31,0,0,1-6.4,6.4H320a6.31,6.31,0,0,1-6.4-6.4v-4a6.31,6.31,0,0,1,6.4-6.4H492a6.31,6.31,0,0,1,6.4,6.4v4Z"/>
    </g>
  </g>
</svg>
