<?xml version="1.0" encoding="utf-8"?>
<!-- Generator: Adobe Illustrator 21.0.0, SVG Export Plug-In . SVG Version: 6.00 Build 0)  -->
<svg version="1.1" id="Layer_1" xmlns="http://www.w3.org/2000/svg"  x="0px" y="0px"
	 viewBox="0 0 24 24" style="enable-background:new 0 0 24 24;" xml:space="preserve">
<style type="text/css">
	.st0{fill:none;}
</style>
<path class="st0" d="M0,0h24v24H0V0z"/>
<path d="M14,2H6C4.9,2,4,2.9,4,4l0,16c0,1.1,0.9,2,2,2h12c1.1,0,2-0.9,2-2V8L14,2z M18,20H6V4h7v5h5V20z"/>
<polygon points="10.8,19 8.9,19 8.9,17 6.9,17 6.9,15 8.9,15 8.9,12.9 10.8,12.9 10.8,15 12.8,15 12.8,16.9 10.8,17 "/>
</svg>
