<svg viewBox="0 0 16 16" xmlns="http://www.w3.org/2000/svg">
  <path
    d="M11.5625 11.4375C11.9077 11.4375 12.1875 11.1577 12.1875 10.8125C12.1875 10.4673 11.9077 10.1875 11.5625 10.1875C11.2173 10.1875 10.9375 10.4673 10.9375 10.8125C10.9375 11.1577 11.2173 11.4375 11.5625 11.4375Z"
    fill="#C5C5C5"/>
  <path
    d="M14.375 11.3125C14.7202 11.3125 15 11.0327 15 10.6875V8.375C15 6.9965 13.8785 5.875 12.5 5.875H11.7488V3.67081C11.7488 1.64672 10.0666 0 7.99884 0C5.93109 0 4.24884 1.64672 4.24884 3.67081V5.875H3.5C2.1215 5.875 1 6.9965 1 8.375V13.5C1 14.8785 2.1215 16 3.5 16H12.5C13.8785 16 15 14.8785 15 13.5C15 13.1548 14.7202 12.875 14.375 12.875C14.0298 12.875 13.75 13.1548 13.75 13.5C13.75 14.1892 13.1892 14.75 12.5 14.75H3.5C2.81075 14.75 2.25 14.1892 2.25 13.5V8.375C2.25 7.68575 2.81075 7.125 3.5 7.125H12.5C13.1892 7.125 13.75 7.68575 13.75 8.375V10.6875C13.75 11.0327 14.0298 11.3125 14.375 11.3125ZM10.4988 5.875H5.49884V3.67081C5.49884 2.33597 6.62034 1.25 7.99884 1.25C9.37734 1.25 10.4988 2.33597 10.4988 3.67081V5.875Z"
    fill="#C5C5C5"/>
  <path
    d="M6.84375 11.4375C7.18893 11.4375 7.46875 11.1577 7.46875 10.8125C7.46875 10.4673 7.18893 10.1875 6.84375 10.1875C6.49857 10.1875 6.21875 10.4673 6.21875 10.8125C6.21875 11.1577 6.49857 11.4375 6.84375 11.4375Z"
    fill="#C5C5C5"/>
  <path
    d="M4.5 11.4375C4.84518 11.4375 5.125 11.1577 5.125 10.8125C5.125 10.4673 4.84518 10.1875 4.5 10.1875C4.15482 10.1875 3.875 10.4673 3.875 10.8125C3.875 11.1577 4.15482 11.4375 4.5 11.4375Z"
    fill="#C5C5C5"/>
  <path
    d="M9.1875 11.4375C9.53268 11.4375 9.8125 11.1577 9.8125 10.8125C9.8125 10.4673 9.53268 10.1875 9.1875 10.1875C8.84232 10.1875 8.5625 10.4673 8.5625 10.8125C8.5625 11.1577 8.84232 11.4375 9.1875 11.4375Z"
    fill="#C5C5C5"/>
</svg>
