<svg xmlns="http://www.w3.org/2000/svg" viewBox="0 0 484 442.86">
  <defs>
    <style>.cls-1{fill:#ebba16;}.cls-2{fill:#fff;}.cls-3{fill:#fc852e;}</style>
  </defs>
  <title>shared_messages</title>
  <g id="Layer_2" data-name="Layer 2">
    <g id="Layer_1-2" data-name="Layer 1">
      <path class="cls-1"
            d="M367.17,132.92V309.34A41.13,41.13,0,0,1,326,350.47l-142.45.59-83.45,91.79V351.07h-59A41.13,41.13,0,0,1,0,309.94V133.52A41.13,41.13,0,0,1,41.13,92.39L326,91.79A41.14,41.14,0,0,1,367.17,132.92Z"/>
      <path class="cls-2" d="M183.59,183.59H75.1a8.34,8.34,0,0,1,0-16.69H183.59a8.34,8.34,0,0,1,0,16.69Z"/>
      <path class="cls-2" d="M292.07,233.66H75.1a8.34,8.34,0,0,1,0-16.69h217a8.34,8.34,0,1,1,0,16.69Z"/>
      <path class="cls-2" d="M292.07,283.72H75.1a8.34,8.34,0,1,1,0-16.69h217a8.34,8.34,0,1,1,0,16.69Z"/>
      <path class="cls-3"
            d="M442.87.58,158,0a41.14,41.14,0,0,0-41.14,41.13V92.22L326,91.78a41.14,41.14,0,0,1,41.13,41.14V286.81l58.41,64.26V259.27h17.28A41.13,41.13,0,0,0,484,218.14V41.72A41.14,41.14,0,0,0,442.87.58Z"/>
    </g>
  </g>
</svg>
