<svg viewBox="0 0 16 16" xmlns="http://www.w3.org/2000/svg">
  <path
    d="M1.71465 0H9.14323C10.09 0 10.8575 0.767511 10.8575 1.71428V5.14285C10.8575 5.45846 10.6017 5.71429 10.2861 5.71429C9.97047 5.71429 9.71463 5.45846 9.71463 5.14285V1.71428C9.71463 1.39868 9.4588 1.14285 9.14319 1.14285H1.71462C1.39901 1.14285 1.14318 1.39868 1.14318 1.71428V14.2857C1.14318 14.6013 1.39901 14.8572 1.71462 14.8572H9.14323C9.45883 14.8572 9.71467 14.6013 9.71467 14.2857V10.8571C9.71467 10.5415 9.9705 10.2857 10.2861 10.2857C10.6017 10.2857 10.8575 10.5415 10.8575 10.8571V14.2857C10.8575 15.2325 10.09 16 9.14326 16H1.71468C0.767907 16 0.000398636 15.2325 0.000398636 14.2857V1.71428C0.000365257 0.767511 0.767875 0 1.71465 0Z"
    fill="#C5C5C5"/>
  <path
    d="M4.57177 7.4286H14.0495L12.1677 5.54687C11.9485 5.31986 11.9548 4.95812 12.1818 4.73888C12.4032 4.52503 12.7543 4.52503 12.9757 4.73888L15.8329 7.59601C15.8859 7.64911 15.9279 7.71223 15.9563 7.78174C16.0141 7.92152 16.0141 8.07852 15.9563 8.21831C15.9278 8.28805 15.8856 8.35137 15.8323 8.4046L12.9752 11.2617C12.7559 11.4887 12.3942 11.495 12.1672 11.2758C11.9402 11.0566 11.9339 10.6948 12.1531 10.4678C12.1577 10.4631 12.1624 10.4584 12.1672 10.4537L14.0495 8.57144H4.57173C4.25613 8.57144 4.0003 8.31561 4.0003 8.00001C4.0003 7.6844 4.25617 7.4286 4.57177 7.4286Z"
    fill="#C5C5C5"/>
</svg>
